<?xml version="1.0" standalone="no"?>
<!DOCTYPE svg PUBLIC "-//W3C//DTD SVG 20010904//EN"
 "http://www.w3.org/TR/2001/REC-SVG-20010904/DTD/svg10.dtd">
<svg version="1.0" xmlns="http://www.w3.org/2000/svg"
 width="782.000000pt" height="186.000000pt" viewBox="0 0 782.000000 186.000000"
 preserveAspectRatio="xMidYMid meet">
<metadata>
Created by potrace 1.16, written by Peter Selinger 2001-2019
</metadata>
<g transform="translate(0.000000,186.000000) scale(0.100000,-0.100000)"
fill="#000000" stroke="none">
<path d="M264 1806 c-33 -33 -34 -36 -34 -115 l0 -81 783 2 782 3 3 55 c4 70
-12 123 -45 149 -25 21 -35 21 -740 21 l-715 0 -34 -34z"/>
<path d="M191 1478 c-21 -46 -64 -137 -96 -203 -63 -132 -68 -166 -34 -221 49
-79 154 -95 230 -34 l40 31 34 -30 c63 -55 152 -51 210 9 28 29 29 29 42 10
20 -28 86 -60 123 -60 35 0 84 22 118 54 21 19 25 20 35 5 7 -9 28 -26 47 -38
58 -35 129 -25 182 26 l27 26 35 -31 c62 -54 150 -53 210 3 31 29 42 31 49 10
9 -21 81 -55 117 -55 35 0 84 22 117 53 l22 20 35 -31 c60 -52 138 -54 197 -5
35 30 59 73 59 107 0 13 -42 116 -94 228 l-94 203 -787 3 -786 2 -38 -82z
m465 25 c-2 -10 -21 -101 -41 -203 -19 -102 -43 -199 -51 -217 -21 -41 -74
-67 -119 -59 -37 7 -95 65 -95 94 0 13 96 312 125 390 3 8 32 12 95 12 82 0
91 -2 86 -17z m462 -163 c15 -211 12 -243 -24 -281 -54 -57 -148 -44 -181 25
-15 32 -15 52 -5 213 7 98 12 188 12 201 0 22 2 23 93 20 l92 -3 13 -175z
m455 108 c15 -40 45 -128 68 -196 41 -121 42 -124 26 -158 -19 -39 -70 -74
-107 -74 -33 0 -88 34 -100 62 -5 13 -26 106 -45 208 -20 102 -39 195 -42 208
-5 22 -3 22 85 22 l89 0 26 -72z"/>
<path d="M5301 1160 c-83 -20 -136 -102 -134 -209 1 -91 21 -131 119 -232 46
-48 89 -100 94 -115 15 -38 5 -74 -20 -74 -27 0 -33 15 -31 76 l2 54 -87 0
-87 0 5 -83 c6 -110 35 -164 114 -208 31 -18 61 -44 70 -60 8 -16 36 -43 62
-59 92 -58 198 -31 257 65 26 42 30 57 29 119 0 59 -5 82 -33 138 -18 37 -41
74 -52 84 -22 20 -26 74 -5 74 7 0 30 18 50 40 27 30 36 49 36 76 0 52 -46
132 -86 149 -23 9 -40 28 -58 63 -46 91 -135 128 -245 102z m132 -44 c43 -18
73 -53 86 -101 18 -68 16 -75 -28 -75 -37 0 -39 2 -46 38 -8 44 -20 61 -54 73
-52 20 -101 -24 -101 -91 0 -54 21 -85 119 -180 109 -106 130 -147 118 -235
-14 -101 -63 -145 -162 -145 -103 0 -156 52 -159 154 l-1 51 35 0 c34 0 35 -1
43 -50 9 -57 35 -85 79 -85 46 0 78 39 78 95 0 64 -16 90 -111 175 -94 86
-118 128 -119 213 0 64 16 112 48 140 40 36 120 47 175 23z"/>
<path d="M6383 1161 c-66 -17 -116 -73 -147 -164 -5 -15 -9 -16 -28 -6 -13 7
-36 15 -53 19 -29 5 -30 8 -39 78 l-9 72 -208 0 -209 0 0 -70 c0 -38 -1 -73
-2 -77 -2 -5 25 -9 60 -11 l62 -3 1 -47 c1 -26 4 -168 8 -317 l6 -270 63 -3
c68 -3 62 2 92 -80 11 -28 17 -32 47 -32 84 0 93 27 94 285 0 110 5 217 10
238 6 22 29 59 52 84 41 44 42 45 48 22 4 -13 7 -97 8 -185 1 -181 12 -228 62
-280 17 -18 47 -39 67 -49 21 -9 46 -30 57 -47 37 -57 89 -91 149 -96 49 -4
60 -1 114 33 58 35 61 39 83 108 23 70 24 71 29 37 l5 -35 70 -5 70 -5 14 -43
c10 -32 22 -47 45 -59 30 -14 36 -14 78 6 25 11 48 27 52 36 8 22 21 19 77
-20 61 -42 82 -43 116 -9 l26 26 -7 126 c-8 143 -9 215 -4 352 3 90 1 98 -27
149 -21 38 -40 58 -63 68 -19 8 -37 25 -43 41 -18 47 -60 94 -103 113 -33 15
-66 19 -167 19 l-127 0 -7 -177 c-6 -134 -10 -171 -17 -148 -33 104 -49 133
-87 150 -24 10 -44 29 -53 49 -22 44 -65 94 -98 111 -35 18 -125 27 -167 16z
m144 -50 c30 -14 48 -31 62 -60 20 -37 21 -58 21 -288 0 -216 -2 -252 -18
-283 -26 -52 -74 -80 -139 -80 -70 0 -117 22 -145 69 -22 34 -23 47 -26 267
-4 251 2 293 44 343 43 51 128 65 201 32z m-459 -28 l3 -32 -63 -3 -63 -3 -3
-317 -2 -318 -40 0 -40 0 -2 318 -3 317 -62 3 c-61 3 -63 4 -63 31 0 15 3 31
7 35 4 3 79 5 167 4 l161 -3 3 -32z m1028 18 c56 -26 74 -67 74 -171 0 -86 -7
-109 -47 -151 l-24 -26 25 -16 c34 -23 44 -63 49 -204 l4 -123 -37 0 c-48 0
-50 6 -50 130 0 54 -4 110 -10 125 -12 31 -68 57 -114 53 l-31 -3 -3 -152 -3
-153 -39 0 -40 0 0 348 c0 192 3 352 7 355 3 4 49 7 102 7 72 0 106 -5 137
-19z"/>
<path d="M6415 1049 c-44 -25 -45 -32 -45 -290 l0 -248 26 -20 c53 -42 116
-17 129 51 3 18 5 131 3 250 -3 202 -4 219 -23 237 -26 25 -65 34 -90 20z"/>
<path d="M6934 1037 c-2 -7 -3 -65 -2 -128 l3 -114 51 -3 c75 -4 97 17 102
101 6 87 -10 132 -50 146 -42 15 -98 14 -104 -2z"/>
<path d="M2017 1154 c-4 -4 -7 -182 -7 -395 l0 -389 23 -5 c12 -2 44 -6 72 -7
47 -3 50 -5 56 -35 8 -40 22 -58 62 -78 30 -15 31 -15 68 21 21 20 40 47 43
60 10 37 41 30 63 -14 11 -20 35 -46 54 -56 49 -27 87 -8 110 54 l17 45 76 3
c76 3 76 3 76 -23 0 -28 16 -66 34 -77 27 -18 66 -7 111 32 55 48 80 50 124
11 120 -107 199 -50 161 114 -5 23 -16 79 -24 125 -35 191 -75 377 -87 405
-16 36 -45 58 -79 63 -33 4 -31 2 -51 80 l-17 67 -93 0 -93 0 -62 -305 c-34
-168 -67 -316 -72 -330 -7 -18 -10 34 -11 179 -1 119 -6 220 -13 242 -12 43
-49 64 -90 54 -23 -6 -26 -3 -31 32 -4 21 -7 60 -7 86 l0 48 -82 -3 -83 -3 -3
-55 c-3 -82 -9 -97 -38 -104 -15 -4 -29 -4 -33 -1 -3 4 -8 41 -11 83 l-5 77
-75 3 c-42 1 -79 0 -83 -4z m121 -196 l3 -158 84 0 84 0 3 158 3 157 35 0 35
0 3 -352 2 -353 -40 0 -39 0 -3 158 -3 157 -82 3 -83 3 0 -161 0 -160 -45 0
-45 0 0 348 c0 192 3 352 7 356 4 4 23 6 43 4 l35 -3 3 -157z m802 -191 c36
-191 64 -350 61 -352 -2 -3 -21 -5 -41 -5 l-37 0 -14 68 -14 67 -87 3 c-98 3
-87 12 -105 -88 -8 -43 -10 -45 -46 -48 -27 -2 -37 1 -37 11 0 28 120 652 130
675 9 21 16 23 67 20 l56 -3 67 -348z"/>
<path d="M2800 980 c0 -3 -14 -75 -30 -160 -42 -215 -45 -200 40 -200 39 0 70
3 70 6 0 25 -65 341 -71 349 -5 5 -9 7 -9 5z"/>
<path d="M3190 987 c0 -96 -3 -276 -7 -400 l-6 -227 72 0 c59 0 73 -3 78 -17
3 -10 14 -37 25 -60 19 -41 21 -42 56 -38 39 5 70 33 76 69 28 155 32 163 98
197 51 26 108 77 119 107 5 14 12 22 15 20 3 -3 8 -66 12 -139 l7 -134 63 -3
c58 -3 64 -5 74 -30 24 -60 32 -71 57 -80 59 -21 94 21 106 125 8 73 28 103
88 132 106 52 142 120 141 262 0 104 -27 168 -87 209 -21 14 -51 48 -67 75
-15 28 -45 61 -66 75 -35 23 -48 25 -176 28 l-138 4 -1 -84 c-1 -45 -4 -110
-8 -142 l-6 -59 -33 52 c-21 31 -43 53 -58 57 -17 4 -32 21 -46 50 -24 53 -87
109 -130 118 -17 3 -82 6 -144 6 l-114 0 0 -173z m277 114 c65 -30 78 -63 78
-201 0 -94 -3 -121 -18 -143 -29 -44 -65 -62 -141 -67 l-71 -5 -3 -138 -3
-137 -39 0 -40 0 0 348 c0 192 3 352 7 355 3 4 47 7 97 7 68 0 102 -5 133 -19z
m541 -1 c66 -30 85 -82 80 -215 -5 -149 -36 -186 -162 -195 l-71 -5 -3 -138
-3 -137 -39 0 -40 0 0 348 c0 192 3 352 7 355 3 4 47 7 97 7 68 0 102 -5 134
-20z"/>
<path d="M3318 1044 c-5 -4 -8 -70 -8 -146 l0 -138 55 0 c85 0 95 15 95 143 0
91 -2 106 -20 122 -21 19 -109 33 -122 19z"/>
<path d="M3858 1044 c-5 -4 -8 -70 -8 -146 l0 -138 55 0 c89 0 113 43 102 177
-6 81 -25 104 -94 110 -26 3 -51 1 -55 -3z"/>
<path d="M4236 1138 c4 -13 40 -125 80 -249 68 -209 74 -234 75 -315 1 -49 4
-116 8 -149 l6 -60 63 -5 c63 -5 64 -5 77 -43 18 -53 33 -67 71 -67 66 0 79
30 88 195 3 50 12 110 20 135 61 180 97 315 94 358 -3 40 -6 47 -28 52 -35 9
-82 -6 -103 -33 -18 -22 -18 -22 -11 18 4 22 15 67 25 100 27 88 30 85 -60 85
l-78 0 -23 -62 c-24 -66 -45 -98 -65 -98 -14 0 -17 5 -50 95 l-23 60 -87 3
c-86 3 -87 3 -79 -20z m189 -180 c27 -86 53 -160 57 -163 3 -4 30 67 60 157
51 157 54 163 82 166 16 2 32 0 37 -5 5 -5 -25 -109 -66 -233 l-75 -225 0
-122 0 -123 -40 0 -40 0 0 123 0 122 -75 224 c-41 123 -72 228 -69 233 3 5 22
8 42 6 l36 -3 51 -157z"/>
<path d="M7369 1028 c-1 -73 -3 -253 -4 -401 l-3 -267 60 0 c72 0 98 -12 98
-46 0 -16 13 -38 35 -60 l35 -34 99 0 c55 0 106 3 115 6 12 5 16 21 16 74 0
66 -1 68 -29 78 -23 8 -30 18 -35 49 -10 63 -1 116 22 126 35 16 47 51 32 97
-7 22 -21 42 -30 45 -38 12 -60 45 -60 90 0 44 1 46 48 68 l47 22 3 62 c3 60
2 63 -23 69 -34 8 -45 32 -45 98 l0 56 -190 0 -190 0 -1 -132z m339 55 l3 -32
-103 -3 -103 -3 -3 -122 -3 -123 86 0 85 0 0 -35 0 -35 -85 0 -85 0 0 -125 0
-125 105 0 105 0 0 -35 0 -35 -150 0 -150 0 0 348 c0 192 3 352 7 356 4 3 70
5 147 4 l141 -3 3 -32z"/>
<path d="M290 964 c-14 -8 -37 -19 -52 -24 l-28 -10 0 -450 0 -450 -100 0
c-82 0 -100 -3 -100 -15 0 -13 118 -15 1006 -15 800 0 1005 3 1002 13 -3 8
-35 13 -101 15 l-97 3 0 450 c0 419 -1 450 -17 455 -10 3 -39 15 -64 26 l-45
20 -38 -23 c-52 -30 -139 -30 -193 1 l-39 22 -43 -23 c-58 -30 -134 -30 -190
1 l-41 24 -42 -24 c-56 -31 -142 -31 -193 0 l-37 23 -40 -23 c-55 -31 -140
-31 -195 -1 l-40 23 -44 -22 c-57 -30 -130 -30 -186 -1 -48 24 -49 24 -83 5z
m860 -389 l0 -295 -395 0 -395 0 0 295 0 295 395 0 395 0 0 -295z m518 -17 l3
-158 -186 0 -185 0 0 153 c0 85 3 157 7 161 4 3 86 5 182 4 l176 -3 3 -157z
m2 -368 l0 -160 -185 0 -185 0 0 160 0 160 185 0 185 0 0 -160z m-522 23 l-3
-28 -392 -3 -393 -2 0 30 0 30 396 0 395 0 -3 -27z"/>
<path d="M805 573 c-123 -116 -154 -158 -118 -158 17 0 283 254 283 271 0 33
-38 7 -165 -113z"/>
<path d="M632 542 c-118 -113 -134 -134 -112 -147 12 -8 270 233 270 252 0 33
-44 4 -158 -105z"/>
</g>
</svg>
