<?xml version="1.0" standalone="no"?>
<!DOCTYPE svg PUBLIC "-//W3C//DTD SVG 20010904//EN"
 "http://www.w3.org/TR/2001/REC-SVG-20010904/DTD/svg10.dtd">
<svg version="1.0" xmlns="http://www.w3.org/2000/svg"
 width="231.000000pt" height="218.000000pt" viewBox="0 0 231.000000 218.000000"
 preserveAspectRatio="xMidYMid meet">

<g transform="translate(0.000000,218.000000) scale(0.100000,-0.100000)"
fill="#000000" stroke="none">
<path d="M735 2138 c-53 -51 -165 -115 -330 -188 -179 -79 -207 -101 -228
-182 -18 -64 -100 -654 -127 -903 -27 -251 -39 -417 -46 -653 l-7 -202 200 0
200 0 6 88 c4 48 16 246 29 440 12 194 25 347 29 340 17 -32 51 -195 66 -317
16 -127 16 -146 -1 -330 -9 -107 -18 -200 -19 -206 -1 -7 97 -11 295 -13 l298
-2 5 22 c8 34 45 240 45 252 0 5 3 6 6 3 4 -4 19 -66 33 -139 l27 -133 298 -3
299 -2 -6 47 c-31 248 -32 414 -2 589 20 113 46 236 51 232 3 -3 54 -805 54
-850 0 -17 12 -18 200 -18 l200 0 0 63 c0 340 -56 934 -131 1390 -16 97 -29
196 -29 218 0 123 -49 188 -185 244 -134 55 -274 131 -352 189 l-68 51 3 -100
c4 -114 -15 -225 -74 -427 -62 -213 -309 -848 -324 -831 -10 12 -212 559 -253
688 -69 215 -112 411 -124 576 l-8 96 -30 -29z m1075 -768 l0 -40 -160 0 -160
0 0 40 0 40 160 0 160 0 0 -40z m-622 -642 c7 -7 12 -21 12 -33 0 -12 -5 -26
-12 -33 -7 -7 -21 -12 -33 -12 -40 0 -61 50 -33 78 7 7 21 12 33 12 12 0 26
-5 33 -12z m-7 -288 c38 -21 19 -82 -26 -82 -59 0 -60 90 -2 92 5 0 17 -5 28
-10z"/>
<path d="M1083 2159 c-18 -5 -35 -14 -38 -19 -3 -5 4 -37 16 -70 l22 -60 47 0
48 0 25 63 25 62 -22 12 c-33 17 -87 23 -123 12z"/>
<path d="M1066 1908 c-3 -7 -21 -125 -41 -263 -19 -137 -38 -261 -41 -275 -4
-22 5 -32 62 -75 37 -28 73 -53 79 -57 7 -4 42 18 84 54 l73 62 -7 45 c-3 25
-8 55 -11 66 -3 15 5 25 30 40 l34 20 -54 145 c-31 80 -61 168 -68 195 l-13
50 -62 3 c-44 2 -62 -1 -65 -10z"/>
</g>
</svg>
