<?xml version="1.0" standalone="no"?>
<!DOCTYPE svg PUBLIC "-//W3C//DTD SVG 20010904//EN"
 "http://www.w3.org/TR/2001/REC-SVG-20010904/DTD/svg10.dtd">
<svg version="1.0" xmlns="http://www.w3.org/2000/svg"
 width="224.000000pt" height="224.000000pt" viewBox="0 0 224.000000 224.000000"
 preserveAspectRatio="xMidYMid meet">

<g transform="translate(0.000000,224.000000) scale(0.100000,-0.100000)"
fill="#000000" stroke="none">
<path d="M1496 2045 c-16 -9 -48 -32 -70 -53 -676 -614 -1401 -1280 -1412
-1298 -32 -48 -18 -59 253 -190 262 -128 299 -139 350 -111 12 7 333 314 715
682 381 369 728 704 771 744 83 79 97 113 55 131 -40 17 -537 110 -586 110
-26 0 -60 -7 -76 -15z m227 -141 c78 -18 97 -28 81 -44 -17 -17 -178 22 -182
43 -4 21 9 21 101 1z m-68 -99 c143 -32 263 -61 268 -64 6 -6 -585 -583 -1084
-1059 l-87 -83 -240 118 c-132 65 -241 121 -241 125 -1 5 224 215 934 870 93
87 175 156 180 154 6 -2 127 -29 270 -61z m-1229 -1140 c9 -22 -24 -79 -55
-98 -51 -30 -91 -17 -91 30 0 28 54 91 83 95 26 5 56 -8 63 -27z"/>
<path d="M1336 1759 c-25 -19 -27 -26 -21 -63 4 -22 8 -42 9 -43 7 -8 150 27
172 41 35 24 28 50 -16 54 -19 2 -39 10 -43 18 -12 21 -70 17 -101 -7z"/>
<path d="M1694 1709 c-24 -15 -37 -17 -62 -10 -36 11 -47 2 -37 -29 5 -15 -1
-24 -24 -38 -42 -23 -39 -33 8 -26 33 5 41 3 50 -15 15 -28 23 -27 44 8 13 22
27 31 57 36 45 8 52 22 15 31 -30 7 -30 8 -9 39 20 31 4 33 -42 4z"/>
<path d="M1168 1555 c-6 -6 4 -85 11 -85 26 0 133 39 121 44 -45 18 -129 44
-132 41z"/>
<path d="M1094 1509 c-28 -30 -33 -40 -19 -36 11 4 32 9 47 13 24 5 27 10 22
33 -4 14 -8 27 -9 28 -1 2 -19 -16 -41 -38z"/>
<path d="M1263 1479 c-28 -8 -33 -14 -33 -41 l0 -32 40 39 c52 51 52 51 -7 34z"/>
<path d="M1095 1465 l-40 -13 28 -11 c45 -18 117 -34 123 -28 14 14 -9 47 -32
47 -13 0 -24 5 -24 10 0 12 -3 12 -55 -5z"/>
<path d="M1383 1429 c-18 -18 -47 -37 -64 -43 -38 -13 -51 -36 -20 -36 12 0
41 18 64 39 34 32 48 38 70 34 33 -6 31 -27 -4 -31 -28 -5 -51 -21 -44 -32 9
-15 43 2 81 41 21 21 36 41 33 43 -3 3 -23 8 -44 11 -36 6 -43 3 -72 -26z m72
11 c19 -8 19 -9 -2 -9 -12 -1 -25 4 -28 9 -7 12 2 12 30 0z"/>
<path d="M863 1289 c-26 -23 -49 -45 -51 -49 -3 -8 7 -13 85 -40 l53 -19 42
32 c54 42 56 53 14 67 -20 6 -36 17 -36 25 0 13 -21 25 -45 25 -8 0 -35 -19
-62 -41z"/>
<path d="M1118 1189 c-32 -28 -58 -54 -58 -59 0 -5 23 -16 50 -25 l50 -17 48
40 c26 22 55 49 65 60 18 19 17 20 -29 36 -26 9 -52 16 -58 16 -6 0 -37 -23
-68 -51z m118 25 c33 -8 30 -17 -17 -57 l-40 -35 -41 16 -40 16 43 38 c24 20
50 35 57 33 8 -3 25 -8 38 -11z"/>
<path d="M1160 1173 c-40 -7 -45 -20 -10 -28 23 -5 35 -3 41 6 11 17 11 29 2
28 -5 -1 -19 -4 -33 -6z"/>
<path d="M2055 1702 c-524 -516 -1403 -1356 -1431 -1368 -60 -25 -103 -18
-215 37 -333 164 -387 187 -381 165 13 -54 53 -84 295 -219 203 -114 251 -137
285 -137 41 0 48 6 414 358 205 197 555 533 778 746 383 367 439 428 439 476
0 8 -7 32 -17 52 l-17 38 -150 -148z"/>
</g>
</svg>
